<?xml version="1.0" encoding="UTF-8"?>
<!DOCTYPE svg PUBLIC "-//W3C//DTD SVG 1.1//EN" "http://www.w3.org/Graphics/SVG/1.1/DTD/svg11.dtd">
<svg xmlns="http://www.w3.org/2000/svg" version="1.1" width="3119px" height="3119px" style="shape-rendering:geometricPrecision; text-rendering:geometricPrecision; image-rendering:optimizeQuality; fill-rule:evenodd; clip-rule:evenodd" xmlns:xlink="http://www.w3.org/1999/xlink">
<g><path style="opacity:0.999" fill="#0f583c" d="M 1502.5,23.5 C 1870.24,13.8151 2200.24,118.982 2492.5,339C 2755.96,543.951 2936.12,806.785 3033,1127.5C 3117.45,1425.72 3114.45,1723.05 3024,2019.5C 2930.1,2310.9 2765.6,2553.74 2530.5,2748C 2264.89,2962.14 1960.56,3077.14 1617.5,3093C 1246.81,3103.76 914.479,2997.76 620.5,2775C 362.141,2572.63 184.308,2314.13 87,1999.5C 13.6744,1748.68 3.34106,1495.35 56,1239.5C 129.739,906.791 293.239,627.958 546.5,403C 820.423,167.014 1139.09,40.5144 1502.5,23.5 Z"/></g>
<g><path style="opacity:1" fill="#f07323" d="M 1221.5,711.5 C 1231.31,710.825 1239.81,713.825 1247,720.5C 1303.01,815.848 1358.01,911.848 1412,1008.5C 1576.33,1292.5 1740.67,1576.5 1905,1860.5C 1924.35,1893.55 1940.01,1928.22 1952,1964.5C 1989.77,2123.32 1950.6,2259.49 1834.5,2373C 1823.53,2381.95 1811.53,2389.29 1798.5,2395C 1784.53,2399.79 1773.03,2396.29 1764,2384.5C 1760.42,2379.67 1757.09,2374.67 1754,2369.5C 1633.67,2158.83 1513.33,1948.17 1393,1737.5C 1298.09,1574.01 1202.42,1411.01 1106,1248.5C 1044.37,1140.49 1031.03,1026.82 1066,907.5C 1090.19,840.006 1128.69,782.173 1181.5,734C 1193.58,724.131 1206.91,716.631 1221.5,711.5 Z"/></g>
<g><path style="opacity:1" fill="#f07323" d="M 1889.5,712.5 C 1903.35,711.509 1913.52,717.176 1920,729.5C 1951.75,787.328 1983.75,844.994 2016,902.5C 2201.66,1217.87 2385.33,1534.54 2567,1852.5C 2588.21,1891.26 2605.88,1931.59 2620,1973.5C 2644.19,2055.25 2640.19,2135.58 2608,2214.5C 2583.07,2277.23 2545.23,2330.73 2494.5,2375C 2479.54,2385.95 2464.04,2396.12 2448,2405.5C 2426.83,2378 2406.83,2349.67 2388,2320.5C 2371.67,2288.17 2355.33,2255.83 2339,2223.5C 2299.59,2155 2259.92,2086.67 2220,2018.5C 2131.69,1860.53 2041.35,1703.86 1949,1548.5C 1890.34,1443.85 1830.68,1339.85 1770,1236.5C 1709.39,1127.73 1699.39,1014.39 1740,896.5C 1762.52,835.988 1798.35,784.822 1847.5,743C 1856.5,735.333 1865.5,727.667 1874.5,720C 1879.25,716.694 1884.25,714.194 1889.5,712.5 Z"/></g>
<g><path style="opacity:1" fill="#e64224" d="M 831.5,1625.5 C 863.854,1625.1 896.187,1625.6 928.5,1627C 1039.1,1641.04 1126.6,1693.2 1191,1783.5C 1257.04,1880.35 1277.7,1986.35 1253,2101.5C 1222.36,2228.12 1147.53,2317.62 1028.5,2370C 951.505,2400.84 872.171,2408.5 790.5,2393C 646.408,2361.91 550.241,2276.74 502,2137.5C 465.229,2020.19 477.563,1908.52 539,1802.5C 606.857,1695.13 704.357,1636.13 831.5,1625.5 Z"/></g>
</svg>
