<?xml version="1.0" encoding="UTF-8"?>
<!DOCTYPE svg PUBLIC "-//W3C//DTD SVG 1.1//EN" "http://www.w3.org/Graphics/SVG/1.1/DTD/svg11.dtd">
<svg xmlns="http://www.w3.org/2000/svg" version="1.1" width="3165px" height="1515px" style="shape-rendering:geometricPrecision; text-rendering:geometricPrecision; image-rendering:optimizeQuality; fill-rule:evenodd; clip-rule:evenodd" xmlns:xlink="http://www.w3.org/1999/xlink">
<g><path style="opacity:0.992" fill="#000000" d="M 285.5,83.5 C 365.047,80.1783 424.881,112.512 465,180.5C 497.144,124.078 545.644,91.9117 610.5,84C 675.183,79.8765 728.683,102.043 771,150.5C 810.743,202.553 821.743,260.219 804,323.5C 777.205,397.618 724.705,440.118 646.5,451C 566.543,455.624 506.043,423.79 465,355.5C 428.755,417.39 374.588,449.723 302.5,452.5C 223.621,449.174 167.121,412.174 133,341.5C 105.708,271.142 115.375,206.476 162,147.5C 195.131,110.684 236.298,89.3508 285.5,83.5 Z M 302.5,212.5 C 330.413,214.913 348.246,229.58 356,256.5C 359.804,287.403 347.304,308.57 318.5,320C 286.992,326.829 264.492,315.662 251,286.5C 242.774,255.13 252.94,231.963 281.5,217C 288.47,214.669 295.47,213.169 302.5,212.5 Z M 627.5,212.5 C 660.854,215.854 679.187,234.187 682.5,267.5C 681.413,290.846 670.413,307.679 649.5,318C 616.561,328.253 592.394,318.086 577,287.5C 567.899,254.539 578.732,230.706 609.5,216C 615.556,214.374 621.556,213.208 627.5,212.5 Z"/></g>
<g><path style="opacity:0.972" fill="#000000" d="M 1090.5,378.5 C 1099.17,378.5 1107.83,378.5 1116.5,378.5C 1116.5,631.5 1116.5,884.5 1116.5,1137.5C 1107.83,1137.5 1099.17,1137.5 1090.5,1137.5C 1090.5,884.5 1090.5,631.5 1090.5,378.5 Z"/></g>
<g><path style="opacity:0.99" fill="#000000" d="M 463.5,406.5 C 464.552,406.351 465.552,406.517 466.5,407C 515.392,461.087 576.392,485.421 649.5,480C 670.595,477.81 690.928,472.643 710.5,464.5C 710.833,500 711.167,535.5 711.5,571C 711.651,608.204 711.151,645.371 710,682.5C 707.5,687.667 703.667,691.5 698.5,694C 686.896,695.412 675.229,695.912 663.5,695.5C 663.667,682.163 663.5,668.829 663,655.5C 658.051,632.218 643.884,618.384 620.5,614C 517.167,613.333 413.833,613.333 310.5,614C 286.447,618.387 271.947,632.553 267,656.5C 266.5,669.496 266.333,682.496 266.5,695.5C 256.161,695.666 245.828,695.5 235.5,695C 227.435,693.268 222.268,688.435 220,680.5C 219.167,608.498 219.333,536.498 220.5,464.5C 289.33,491.124 355.33,485.291 418.5,447C 426.5,441 434.5,435 442.5,429C 450.094,421.911 457.094,414.411 463.5,406.5 Z"/></g>
<g><path style="opacity:0.986" fill="#000000" d="M 906.5,435.5 C 916.275,435.774 921.775,440.774 923,450.5C 923.667,503.5 923.667,556.5 923,609.5C 921.198,621.287 914.365,626.121 902.5,624C 852.87,611.843 803.203,599.843 753.5,588C 741.181,585.679 733.348,578.512 730,566.5C 729.333,542.167 729.333,517.833 730,493.5C 732.825,482.675 739.658,475.842 750.5,473C 802.633,460.465 854.633,447.965 906.5,435.5 Z"/></g>
<g><path style="opacity:0.984" fill="#000000" d="M 115.5,470.5 C 128.504,470.333 141.504,470.5 154.5,471C 161.097,473.263 165.264,477.763 167,484.5C 167.499,490.491 167.666,496.491 167.5,502.5C 173.842,502.334 180.175,502.5 186.5,503C 193.333,505.167 197.833,509.667 200,516.5C 200.667,537.5 200.667,558.5 200,579.5C 197.76,586.739 192.926,591.239 185.5,593C 179.509,593.499 173.509,593.666 167.5,593.5C 167.884,600.589 167.384,607.589 166,614.5C 163.532,619.989 159.365,623.489 153.5,625C 140.833,625.667 128.167,625.667 115.5,625C 109.333,622.833 105.167,618.667 103,612.5C 101.361,570.872 101.028,529.205 102,487.5C 103.368,479.303 107.868,473.637 115.5,470.5 Z"/></g>
<g><path style="opacity:0.964" fill="#000000" d="M 2583.5,571.5 C 2642.67,571.141 2684.17,597.808 2708,651.5C 2719.88,687.089 2719.22,722.423 2706,757.5C 2681.01,806.429 2640.85,831.096 2585.5,831.5C 2528.7,829.498 2489.2,802.498 2467,750.5C 2452.98,709.303 2456.31,669.636 2477,631.5C 2502.2,593.478 2537.7,573.478 2583.5,571.5 Z M 2586.5,599.5 C 2639.02,602.853 2671.19,630.186 2683,681.5C 2689.24,721.8 2677.4,755.633 2647.5,783C 2617.69,804.877 2585.35,809.21 2550.5,796C 2511.61,777.397 2491.61,746.397 2490.5,703C 2491.55,657.85 2512.22,625.517 2552.5,606C 2563.71,602.413 2575.04,600.247 2586.5,599.5 Z"/></g>
<g><path style="opacity:0.968" fill="#000000" d="M 1242.5,578.5 C 1293.5,578.333 1344.5,578.5 1395.5,579C 1396.83,588 1396.83,597 1395.5,606C 1354.5,606.5 1313.5,606.667 1272.5,606.5C 1272.5,633.167 1272.5,659.833 1272.5,686.5C 1310.83,686.5 1349.17,686.5 1387.5,686.5C 1387.5,695.833 1387.5,705.167 1387.5,714.5C 1349.17,714.5 1310.83,714.5 1272.5,714.5C 1272.5,751.5 1272.5,788.5 1272.5,825.5C 1262.5,825.5 1252.5,825.5 1242.5,825.5C 1242.5,743.167 1242.5,660.833 1242.5,578.5 Z"/></g>
<g><path style="opacity:0.97" fill="#000000" d="M 1435.5,578.5 C 1445.5,578.5 1455.5,578.5 1465.5,578.5C 1465.5,660.833 1465.5,743.167 1465.5,825.5C 1455.5,825.5 1445.5,825.5 1435.5,825.5C 1435.5,743.167 1435.5,660.833 1435.5,578.5 Z"/></g>
<g><path style="opacity:0.968" fill="#000000" d="M 1526.5,578.5 C 1536.5,578.5 1546.5,578.5 1556.5,578.5C 1556.5,651.5 1556.5,724.5 1556.5,797.5C 1593.83,797.333 1631.17,797.5 1668.5,798C 1669.83,807 1669.83,816 1668.5,825C 1621.17,825.5 1573.83,825.667 1526.5,825.5C 1526.5,743.167 1526.5,660.833 1526.5,578.5 Z"/></g>
<g><path style="opacity:0.967" fill="#000000" d="M 1700.5,578.5 C 1715.41,578.176 1730.24,578.509 1745,579.5C 1772.41,643.314 1800.08,706.98 1828,770.5C 1855.83,706.833 1883.67,643.167 1911.5,579.5C 1926.15,578.501 1940.82,578.167 1955.5,578.5C 1955.5,660.833 1955.5,743.167 1955.5,825.5C 1945.5,825.5 1935.5,825.5 1925.5,825.5C 1925.67,756.833 1925.5,688.166 1925,619.5C 1895.89,688.182 1866.39,756.682 1836.5,825C 1830.5,825.667 1824.5,825.667 1818.5,825C 1789.48,757.124 1760.31,689.29 1731,621.5C 1730.5,689.499 1730.33,757.499 1730.5,825.5C 1720.5,825.5 1710.5,825.5 1700.5,825.5C 1700.5,743.167 1700.5,660.833 1700.5,578.5 Z"/></g>
<g><path style="opacity:0.969" fill="#000000" d="M 2015.5,578.5 C 2045.5,578.333 2075.5,578.5 2105.5,579C 2162.58,585.98 2184.41,617.48 2171,673.5C 2161.41,693.225 2145.91,705.725 2124.5,711C 2118.57,712.432 2112.57,713.432 2106.5,714C 2086.17,714.5 2065.84,714.667 2045.5,714.5C 2045.5,751.5 2045.5,788.5 2045.5,825.5C 2035.5,825.5 2025.5,825.5 2015.5,825.5C 2015.5,743.167 2015.5,660.833 2015.5,578.5 Z M 2045.5,606.5 C 2065.84,606.333 2086.17,606.5 2106.5,607C 2136.78,613.032 2148.28,631.199 2141,661.5C 2133.62,675.954 2121.78,684.121 2105.5,686C 2085.5,686.5 2065.5,686.667 2045.5,686.5C 2045.5,659.833 2045.5,633.167 2045.5,606.5 Z"/></g>
<g><path style="opacity:0.97" fill="#000000" d="M 2221.5,578.5 C 2231.5,578.5 2241.5,578.5 2251.5,578.5C 2251.5,613.167 2251.5,647.833 2251.5,682.5C 2295.17,682.5 2338.83,682.5 2382.5,682.5C 2382.5,647.833 2382.5,613.167 2382.5,578.5C 2392.5,578.5 2402.5,578.5 2412.5,578.5C 2412.5,660.833 2412.5,743.167 2412.5,825.5C 2402.5,825.5 2392.5,825.5 2382.5,825.5C 2382.5,787.167 2382.5,748.833 2382.5,710.5C 2338.83,710.5 2295.17,710.5 2251.5,710.5C 2251.5,748.833 2251.5,787.167 2251.5,825.5C 2241.5,825.5 2231.5,825.5 2221.5,825.5C 2221.5,743.167 2221.5,660.833 2221.5,578.5 Z"/></g>
<g><path style="opacity:0.968" fill="#000000" d="M 2736.5,578.5 C 2800.5,578.333 2864.5,578.5 2928.5,579C 2929.83,588 2929.83,597 2928.5,606C 2901.5,606.5 2874.5,606.667 2847.5,606.5C 2847.5,679.5 2847.5,752.5 2847.5,825.5C 2837.5,825.5 2827.5,825.5 2817.5,825.5C 2817.5,752.5 2817.5,679.5 2817.5,606.5C 2790.5,606.5 2763.5,606.5 2736.5,606.5C 2736.5,597.167 2736.5,587.833 2736.5,578.5 Z"/></g>
<g><path style="opacity:0.99" fill="#000000" d="M 312.5,642.5 C 415.544,642.009 518.544,642.509 621.5,644C 628.07,646.238 632.237,650.738 634,657.5C 634.667,682.5 634.667,707.5 634,732.5C 631.526,738.974 627.026,743.474 620.5,746C 516.833,746.667 413.167,746.667 309.5,746C 302.127,743.296 297.627,738.13 296,730.5C 295.333,706.5 295.333,682.5 296,658.5C 298.786,650.211 304.286,644.878 312.5,642.5 Z"/></g>
<g><path style="opacity:0.978" fill="#000000" d="M 460.5,754.5 C 469.347,753.667 477.181,756.001 484,761.5C 487.62,766.789 491.62,771.789 496,776.5C 614.333,980.5 732.667,1184.5 851,1388.5C 855.325,1406.35 848.825,1418.19 831.5,1424C 819.068,1425.53 809.568,1421.03 803,1410.5C 699.667,1232.5 596.333,1054.5 493,876.5C 492.667,1053.17 492.333,1229.83 492,1406.5C 488.196,1424 477.362,1431.5 459.5,1429C 448.916,1426.08 442.416,1419.25 440,1408.5C 439.667,1231.17 439.333,1053.83 439,876.5C 335.333,1055.17 231.667,1233.83 128,1412.5C 117.499,1424.92 104.999,1427.42 90.5,1420C 78.014,1408.4 76.1806,1395.23 85,1380.5C 201.252,1181 317.252,981.33 433,781.5C 438.117,774.048 443.617,766.882 449.5,760C 453.017,757.674 456.683,755.84 460.5,754.5 Z"/></g>
<g><path style="opacity:0.811" fill="#000000" d="M 1255.5,917.5 C 1259.94,917.21 1264.27,917.71 1268.5,919C 1271.18,920.346 1273.18,922.346 1274.5,925C 1273.9,926.301 1272.9,927.135 1271.5,927.5C 1263.19,920.311 1255.69,920.978 1249,929.5C 1245.83,942.667 1251,948.833 1264.5,948C 1267.17,946.999 1269.51,945.499 1271.5,943.5C 1275.27,945.439 1275.27,947.605 1271.5,950C 1258.6,956.575 1249.1,953.409 1243,940.5C 1240.93,929.303 1245.09,921.637 1255.5,917.5 Z"/></g>
<g><path style="opacity:0.812" fill="#000000" d="M 1324.5,917.5 C 1340.65,916.812 1348.15,924.479 1347,940.5C 1341.93,951.785 1333.43,955.618 1321.5,952C 1311.32,945.381 1308.82,936.547 1314,925.5C 1316.86,921.789 1320.36,919.123 1324.5,917.5 Z M 1325.5,922.5 C 1338.74,922.328 1343.91,928.661 1341,941.5C 1334.95,949.453 1327.95,950.453 1320,944.5C 1314.37,935.235 1316.2,927.902 1325.5,922.5 Z"/></g>
<g><path style="opacity:0.805" fill="#000000" d="M 1517.5,917.5 C 1537.16,917.844 1543.66,927.177 1537,945.5C 1528.68,954.906 1519.34,955.906 1509,948.5C 1502.45,940.41 1502.12,932.076 1508,923.5C 1510.84,920.837 1514.01,918.837 1517.5,917.5 Z M 1518.5,922.5 C 1530.68,922.514 1535.85,928.514 1534,940.5C 1529.25,948.628 1522.75,950.461 1514.5,946C 1509.39,941.002 1508.23,935.168 1511,928.5C 1513.11,925.879 1515.61,923.879 1518.5,922.5 Z"/></g>
<g><path style="opacity:0.824" fill="#000000" d="M 1589.5,917.5 C 1606.96,917.122 1614.13,925.455 1611,942.5C 1610.53,943.931 1609.7,945.097 1608.5,946C 1610.5,948 1612.5,950 1614.5,952C 1610.73,953.183 1607.56,952.349 1605,949.5C 1595.22,955.745 1586.55,954.412 1579,945.5C 1573.31,932.571 1576.81,923.238 1589.5,917.5 Z M 1590.5,922.5 C 1599.07,921.569 1604.57,925.236 1607,933.5C 1607.39,936.685 1606.72,939.685 1605,942.5C 1602,939.5 1599,936.5 1596,933.5C 1594.93,934.618 1593.76,935.618 1592.5,936.5C 1595.32,939.818 1598.32,942.985 1601.5,946C 1587.94,950.785 1581.44,945.952 1582,931.5C 1583.69,927.315 1586.52,924.315 1590.5,922.5 Z"/></g>
<g><path style="opacity:0.808" fill="#000000" d="M 2373.5,917.5 C 2387.09,916.1 2394.75,922.1 2396.5,935.5C 2395.51,946.491 2389.51,952.491 2378.5,953.5C 2363.99,951.148 2358.49,942.814 2362,928.5C 2364.44,923.226 2368.27,919.56 2373.5,917.5 Z M 2375.5,922.5 C 2389.57,923.311 2394.07,930.311 2389,943.5C 2378.73,951.51 2371.06,949.51 2366,937.5C 2365.75,930.269 2368.91,925.269 2375.5,922.5 Z"/></g>
<g><path style="opacity:0.885" fill="#000000" d="M 1385.5,918.5 C 1387.17,918.5 1388.83,918.5 1390.5,918.5C 1390.5,928.5 1390.5,938.5 1390.5,948.5C 1396.83,948.5 1403.17,948.5 1409.5,948.5C 1409.5,949.833 1409.5,951.167 1409.5,952.5C 1401.5,952.5 1393.5,952.5 1385.5,952.5C 1385.5,941.167 1385.5,929.833 1385.5,918.5 Z"/></g>
<g><path style="opacity:0.793" fill="#000000" d="M 1447.5,918.5 C 1449.17,918.5 1450.83,918.5 1452.5,918.5C 1452.5,928.5 1452.5,938.5 1452.5,948.5C 1458.5,948.5 1464.5,948.5 1470.5,948.5C 1470.5,949.833 1470.5,951.167 1470.5,952.5C 1462.5,952.5 1454.5,952.5 1446.5,952.5C 1446.19,941.086 1446.52,929.752 1447.5,918.5 Z"/></g>
<g><path style="opacity:0.781" fill="#000000" d="M 1650.5,918.5 C 1652.5,918.5 1654.5,918.5 1656.5,918.5C 1656.33,926.84 1656.5,935.173 1657,943.5C 1660.09,948.752 1664.25,949.752 1669.5,946.5C 1670.58,945.335 1671.42,944.002 1672,942.5C 1672.5,934.507 1672.67,926.507 1672.5,918.5C 1674.17,918.5 1675.83,918.5 1677.5,918.5C 1677.67,927.173 1677.5,935.84 1677,944.5C 1672.31,953.284 1665.48,955.45 1656.5,951C 1654.62,949.457 1653.12,947.624 1652,945.5C 1650.65,936.559 1650.15,927.559 1650.5,918.5 Z"/></g>
<g><path style="opacity:0.881" fill="#000000" d="M 1718.5,918.5 C 1725.83,918.5 1733.17,918.5 1740.5,918.5C 1740.5,920.167 1740.5,921.833 1740.5,923.5C 1734.83,923.5 1729.17,923.5 1723.5,923.5C 1723.5,925.833 1723.5,928.167 1723.5,930.5C 1728.5,930.5 1733.5,930.5 1738.5,930.5C 1738.5,932.167 1738.5,933.833 1738.5,935.5C 1733.5,935.5 1728.5,935.5 1723.5,935.5C 1723.5,939.833 1723.5,944.167 1723.5,948.5C 1728.83,948.5 1734.17,948.5 1739.5,948.5C 1739.5,949.833 1739.5,951.167 1739.5,952.5C 1732.5,952.5 1725.5,952.5 1718.5,952.5C 1718.5,941.167 1718.5,929.833 1718.5,918.5 Z"/></g>
<g><path style="opacity:0.847" fill="#000000" d="M 1823.5,918.5 C 1825.17,918.5 1826.83,918.5 1828.5,918.5C 1828.5,929.833 1828.5,941.167 1828.5,952.5C 1826.83,952.5 1825.17,952.5 1823.5,952.5C 1823.5,941.167 1823.5,929.833 1823.5,918.5 Z"/></g>
<g><path style="opacity:0.801" fill="#000000" d="M 1870.5,918.5 C 1873.36,918.055 1875.86,918.722 1878,920.5C 1883,928.167 1888,935.833 1893,943.5C 1893.5,935.173 1893.67,926.84 1893.5,918.5C 1895.17,918.5 1896.83,918.5 1898.5,918.5C 1898.5,929.833 1898.5,941.167 1898.5,952.5C 1896.21,952.756 1894.04,952.423 1892,951.5C 1887.39,943.893 1882.39,936.559 1877,929.5C 1876.5,930 1876,930.5 1875.5,931C 1876.3,937.892 1876.64,945.059 1876.5,952.5C 1874.5,952.5 1872.5,952.5 1870.5,952.5C 1870.5,941.167 1870.5,929.833 1870.5,918.5 Z"/></g>
<g><path style="opacity:0.847" fill="#000000" d="M 1937.5,918.5 C 1945.17,918.5 1952.83,918.5 1960.5,918.5C 1960.5,920.167 1960.5,921.833 1960.5,923.5C 1957.5,923.5 1954.5,923.5 1951.5,923.5C 1951.5,933.167 1951.5,942.833 1951.5,952.5C 1949.83,952.5 1948.17,952.5 1946.5,952.5C 1946.5,942.833 1946.5,933.167 1946.5,923.5C 1943.5,923.5 1940.5,923.5 1937.5,923.5C 1937.5,921.833 1937.5,920.167 1937.5,918.5 Z"/></g>
<g><path style="opacity:0.872" fill="#000000" d="M 1997.5,918.5 C 2004.83,918.5 2012.17,918.5 2019.5,918.5C 2019.5,920.167 2019.5,921.833 2019.5,923.5C 2013.83,923.5 2008.17,923.5 2002.5,923.5C 2002.5,925.833 2002.5,928.167 2002.5,930.5C 2007.5,930.5 2012.5,930.5 2017.5,930.5C 2017.5,932.167 2017.5,933.833 2017.5,935.5C 2012.5,935.5 2007.5,935.5 2002.5,935.5C 2002.5,939.833 2002.5,944.167 2002.5,948.5C 2008.17,948.5 2013.83,948.5 2019.5,948.5C 2019.5,949.833 2019.5,951.167 2019.5,952.5C 2012.17,952.5 2004.83,952.5 1997.5,952.5C 1997.5,941.167 1997.5,929.833 1997.5,918.5 Z"/></g>
<g><path style="opacity:0.817" fill="#000000" d="M 2058.5,918.5 C 2063.84,918.334 2069.18,918.501 2074.5,919C 2081.18,924.696 2080.84,930.029 2073.5,935C 2077.69,940.36 2081.69,945.86 2085.5,951.5C 2083.58,952.641 2081.58,952.808 2079.5,952C 2075.74,946.488 2071.74,941.154 2067.5,936C 2066.21,935.51 2064.87,935.343 2063.5,935.5C 2063.5,941.167 2063.5,946.833 2063.5,952.5C 2061.83,952.5 2060.17,952.5 2058.5,952.5C 2058.5,941.167 2058.5,929.833 2058.5,918.5 Z M 2063.5,923.5 C 2066.52,923.335 2069.52,923.502 2072.5,924C 2073.93,926.267 2073.6,928.267 2071.5,930C 2068.85,930.497 2066.19,930.664 2063.5,930.5C 2063.5,928.167 2063.5,925.833 2063.5,923.5 Z"/></g>
<g><path style="opacity:0.849" fill="#000000" d="M 2122.5,918.5 C 2125.65,917.959 2128.15,918.959 2130,921.5C 2134.42,928.672 2139.09,935.672 2144,942.5C 2144.5,934.507 2144.67,926.507 2144.5,918.5C 2146.17,918.5 2147.83,918.5 2149.5,918.5C 2149.5,929.833 2149.5,941.167 2149.5,952.5C 2147.4,952.799 2145.4,952.466 2143.5,951.5C 2138.14,943.97 2132.97,936.303 2128,928.5C 2127.5,936.493 2127.33,944.493 2127.5,952.5C 2125.83,952.5 2124.17,952.5 2122.5,952.5C 2122.5,941.167 2122.5,929.833 2122.5,918.5 Z"/></g>
<g><path style="opacity:0.819" fill="#000000" d="M 2199.5,918.5 C 2201.47,918.261 2203.3,918.594 2205,919.5C 2209.26,930.127 2213.43,940.794 2217.5,951.5C 2215.6,952.466 2213.6,952.799 2211.5,952.5C 2210.93,949.523 2209.93,946.69 2208.5,944C 2204.17,943.333 2199.83,943.333 2195.5,944C 2194.07,946.69 2193.07,949.523 2192.5,952.5C 2190.4,952.799 2188.4,952.466 2186.5,951.5C 2191.04,940.55 2195.37,929.55 2199.5,918.5 Z M 2201.5,926.5 C 2203.34,929.981 2205,933.647 2206.5,937.5C 2203.5,938.833 2200.5,938.833 2197.5,937.5C 2199.24,933.951 2200.57,930.284 2201.5,926.5 Z"/></g>
<g><path style="opacity:0.848" fill="#000000" d="M 2252.5,918.5 C 2260.17,918.5 2267.83,918.5 2275.5,918.5C 2275.5,920.167 2275.5,921.833 2275.5,923.5C 2272.5,923.5 2269.5,923.5 2266.5,923.5C 2266.5,933.167 2266.5,942.833 2266.5,952.5C 2264.83,952.5 2263.17,952.5 2261.5,952.5C 2261.5,942.833 2261.5,933.167 2261.5,923.5C 2258.5,923.5 2255.5,923.5 2252.5,923.5C 2252.5,921.833 2252.5,920.167 2252.5,918.5 Z"/></g>
<g><path style="opacity:0.849" fill="#000000" d="M 2316.5,918.5 C 2318.17,918.5 2319.83,918.5 2321.5,918.5C 2321.5,929.833 2321.5,941.167 2321.5,952.5C 2319.83,952.5 2318.17,952.5 2316.5,952.5C 2316.5,941.167 2316.5,929.833 2316.5,918.5 Z"/></g>
<g><path style="opacity:0.849" fill="#000000" d="M 2435.5,918.5 C 2437.6,918.201 2439.6,918.534 2441.5,919.5C 2446.67,927.167 2451.83,934.833 2457,942.5C 2457.5,934.507 2457.67,926.507 2457.5,918.5C 2459.17,918.5 2460.83,918.5 2462.5,918.5C 2462.5,929.833 2462.5,941.167 2462.5,952.5C 2460.4,952.799 2458.4,952.466 2456.5,951.5C 2451.33,943.833 2446.17,936.167 2441,928.5C 2440.5,936.493 2440.33,944.493 2440.5,952.5C 2438.83,952.5 2437.17,952.5 2435.5,952.5C 2435.5,941.167 2435.5,929.833 2435.5,918.5 Z"/></g>
<g><path style="opacity:0.827" fill="#000000" d="M 2512.5,918.5 C 2514.47,918.261 2516.3,918.594 2518,919.5C 2522.26,930.127 2526.43,940.794 2530.5,951.5C 2528.6,952.466 2526.6,952.799 2524.5,952.5C 2524.77,945.643 2521.61,942.643 2515,943.5C 2512.83,943.667 2510.67,943.833 2508.5,944C 2507.07,946.69 2506.07,949.523 2505.5,952.5C 2503.4,952.799 2501.4,952.466 2499.5,951.5C 2504.04,940.55 2508.37,929.55 2512.5,918.5 Z M 2514.5,926.5 C 2516.34,929.981 2518,933.647 2519.5,937.5C 2516.55,938.655 2513.55,938.821 2510.5,938C 2512.14,934.261 2513.47,930.427 2514.5,926.5 Z"/></g>
<g><path style="opacity:0.902" fill="#000000" d="M 2568.5,918.5 C 2570.17,918.5 2571.83,918.5 2573.5,918.5C 2573.5,928.5 2573.5,938.5 2573.5,948.5C 2579.5,948.5 2585.5,948.5 2591.5,948.5C 2591.5,949.833 2591.5,951.167 2591.5,952.5C 2583.83,952.5 2576.17,952.5 2568.5,952.5C 2568.5,941.167 2568.5,929.833 2568.5,918.5 Z"/></g>
</svg>
